<mxfile host="app.diagrams.net" modified="2020-11-26T20:18:26.819Z" agent="5.0 (X11)" etag="jngIKkcIyrkjnGJt1S8w" version="13.10.4" type="github">
  <diagram id="M92qUQxVGQKg-Boq9Prr" name="Page-1">
    <mxGraphModel dx="1350" dy="775" grid="1" gridSize="10" guides="1" tooltips="1" connect="1" arrows="1" fold="1" page="1" pageScale="1" pageWidth="850" pageHeight="1100" math="0" shadow="0">
      <root>
        <mxCell id="0" />
        <mxCell id="1" parent="0" />
        <mxCell id="yie0-ZUo_IXZUoUwHWhg-2" value="TEAM" style="rounded=0;whiteSpace=wrap;html=1;labelPosition=left;verticalLabelPosition=top;align=right;verticalAlign=bottom;" vertex="1" parent="1">
          <mxGeometry x="70" y="90" width="700" height="370" as="geometry" />
        </mxCell>
        <mxCell id="yie0-ZUo_IXZUoUwHWhg-3" value="Actor" style="shape=umlActor;verticalLabelPosition=bottom;verticalAlign=top;html=1;outlineConnect=0;" vertex="1" parent="1">
          <mxGeometry x="120" y="170" width="30" height="60" as="geometry" />
        </mxCell>
        <mxCell id="yie0-ZUo_IXZUoUwHWhg-4" value="Actor" style="shape=umlActor;verticalLabelPosition=bottom;verticalAlign=top;html=1;outlineConnect=0;" vertex="1" parent="1">
          <mxGeometry x="680" y="170" width="30" height="60" as="geometry" />
        </mxCell>
        <mxCell id="yie0-ZUo_IXZUoUwHWhg-5" value="Actor" style="shape=umlActor;verticalLabelPosition=bottom;verticalAlign=top;html=1;outlineConnect=0;" vertex="1" parent="1">
          <mxGeometry x="120" y="320" width="30" height="60" as="geometry" />
        </mxCell>
        <mxCell id="yie0-ZUo_IXZUoUwHWhg-6" value="Actor" style="shape=umlActor;verticalLabelPosition=bottom;verticalAlign=top;html=1;outlineConnect=0;" vertex="1" parent="1">
          <mxGeometry x="680" y="320" width="30" height="60" as="geometry" />
        </mxCell>
        <mxCell id="yie0-ZUo_IXZUoUwHWhg-8" value="Actor" style="shape=umlActor;verticalLabelPosition=bottom;verticalAlign=top;html=1;outlineConnect=0;" vertex="1" parent="1">
          <mxGeometry x="400" y="170" width="30" height="60" as="geometry" />
        </mxCell>
        <mxCell id="yie0-ZUo_IXZUoUwHWhg-9" value="Actor" style="shape=umlActor;verticalLabelPosition=bottom;verticalAlign=top;html=1;outlineConnect=0;" vertex="1" parent="1">
          <mxGeometry x="400" y="330" width="30" height="60" as="geometry" />
        </mxCell>
        <mxCell id="yie0-ZUo_IXZUoUwHWhg-11" value="" style="shape=callout;whiteSpace=wrap;html=1;perimeter=calloutPerimeter;position2=0.2;base=5;" vertex="1" parent="1">
          <mxGeometry x="140" y="120" width="50" height="60" as="geometry" />
        </mxCell>
        <mxCell id="yie0-ZUo_IXZUoUwHWhg-12" value="" style="shape=callout;whiteSpace=wrap;html=1;perimeter=calloutPerimeter;position2=0.2;base=5;" vertex="1" parent="1">
          <mxGeometry x="420" y="280" width="50" height="60" as="geometry" />
        </mxCell>
        <mxCell id="yie0-ZUo_IXZUoUwHWhg-13" value="" style="shape=callout;whiteSpace=wrap;html=1;perimeter=calloutPerimeter;position2=0.2;base=5;" vertex="1" parent="1">
          <mxGeometry x="700" y="270" width="50" height="60" as="geometry" />
        </mxCell>
        <mxCell id="yie0-ZUo_IXZUoUwHWhg-16" value="Actor" style="shape=umlActor;verticalLabelPosition=bottom;verticalAlign=top;html=1;outlineConnect=0;" vertex="1" parent="1">
          <mxGeometry x="670" y="640" width="90" height="170" as="geometry" />
        </mxCell>
        <mxCell id="yie0-ZUo_IXZUoUwHWhg-32" value="" style="rounded=1;whiteSpace=wrap;html=1;strokeWidth=6;" vertex="1" parent="1">
          <mxGeometry x="120" y="540" width="480" height="310" as="geometry" />
        </mxCell>
        <mxCell id="yie0-ZUo_IXZUoUwHWhg-35" value="" style="rounded=1;whiteSpace=wrap;html=1;strokeWidth=6;" vertex="1" parent="1">
          <mxGeometry x="150" y="560" width="480" height="310" as="geometry" />
        </mxCell>
        <mxCell id="yie0-ZUo_IXZUoUwHWhg-34" value="" style="group" vertex="1" connectable="0" parent="1">
          <mxGeometry x="180" y="580" width="480" height="310" as="geometry" />
        </mxCell>
        <mxCell id="yie0-ZUo_IXZUoUwHWhg-27" value="" style="rounded=1;whiteSpace=wrap;html=1;strokeWidth=6;" vertex="1" parent="yie0-ZUo_IXZUoUwHWhg-34">
          <mxGeometry width="480" height="310" as="geometry" />
        </mxCell>
        <mxCell id="yie0-ZUo_IXZUoUwHWhg-19" value="Text" style="rounded=1;whiteSpace=wrap;html=1;fillColor=#d5e8d4;strokeColor=#82b366;" vertex="1" parent="yie0-ZUo_IXZUoUwHWhg-34">
          <mxGeometry x="40" y="40" width="400" height="60" as="geometry" />
        </mxCell>
        <mxCell id="yie0-ZUo_IXZUoUwHWhg-20" value="Audio" style="rounded=1;whiteSpace=wrap;html=1;fillColor=#fff2cc;strokeColor=#d6b656;" vertex="1" parent="yie0-ZUo_IXZUoUwHWhg-34">
          <mxGeometry x="40" y="120" width="400" height="60" as="geometry" />
        </mxCell>
        <mxCell id="yie0-ZUo_IXZUoUwHWhg-21" value="AnhÃ¤nge" style="rounded=1;whiteSpace=wrap;html=1;fillColor=#fff2cc;strokeColor=#d6b656;" vertex="1" parent="yie0-ZUo_IXZUoUwHWhg-34">
          <mxGeometry x="180" y="200" width="120" height="60" as="geometry" />
        </mxCell>
      </root>
    </mxGraphModel>
  </diagram>
</mxfile>
